<svg xmlns="http://www.w3.org/2000/svg" width="32" height="32" fill="currentColor" class="bi bi-phone" viewBox="0 0 16 16">
    <path d="M11.742 1.031a1 1 0 0 0-1.354-.146l-2.68 2.68a11.34 11.34 0 0 1-2.365-.467c-.73-.133-1.585-.451-2.053-.995A1 1 0 0 0 .35 2.1C2.157 4.353 5.427 7 9 7c2.217 0 4.5-.67 5.813-1.842a1 1 0 0 0-.146-1.354l-2.68-2.68a1 1 0 0 0-1.354.146A8.036 8.036 0 0 1 9 6a8.036 8.036 0 0 1-3.365-.737 1 1 0 0 0-.585.037 1 1 0 0 0-.506 1.305c.22.66.47 1.263.745 1.845.242.546.57 1.051.96 1.537a1 1 0 0 0 1.5.09 5.748 5.748 0 0 0 1.074-.933 1 1 0 0 0-.092-1.416c-.724-.726-1.461-1.564-2.067-2.617A1 1 0 0 0 7 6c-.197 0-.384-.072-.525-.187a1 1 0 0 0-.148 1.33c.68.717 1.347 1.465 1.867 2.232.618.885 1.065 1.751 1.3 2.585.11.445.26.812.436 1.112.22.36.475.642.735.823a1 1 0 0 0 1.364-.036c.508-.53.946-1.118 1.278-1.768a1 1 0 0 0-.015-1.008C12.724 8.163 10.5 8 9 8c-1.499 0-4.175-.2-6.213-.645C1.737 6.903 2.412 5.21 3.235 4c1.059-1.315 2.348-2.356 3.578-3.133a1 1 0 0 0 .928-.267l2.682-2.682z"/>
</svg>
