<svg xmlns="http://www.w3.org/2000/svg" width="32" height="32" fill="currentColor" class="bi bi-link" viewBox="0 0 16 16">
    <path d="M6.354 3.646a.5.5 0 0 1 .146.354v1a.5.5 0 0 1-.146.354l-1 1a.5.5 0 0 1-.708-.708l.647-.646H2.5a2.5 2.5 0 0 1 0-5h1a.5.5 0 0 1 0 1h-1a1.5 1.5 0 0 0 0 3h2.793L5.646 3.646a.5.5 0 0 1 .708 0zM9.146 3.646a.5.5 0 0 1 0-.708l1-1a.5.5 0 0 1 .708.708l-.647.646H13.5a2.5 2.5 0 0 1 0 5h-1a.5.5 0 0 1 0-1h1a1.5 1.5 0 0 0 0-3h-2.793l.646-.646a.5.5 0 0 1 0-.708zM9.854 10.354a.5.5 0 0 1-.146-.354v-1a.5.5 0 0 1 .146-.354l1-1a.5.5 0 0 1 .708.708l-.647.646H13.5a1.5 1.5 0 0 0 0-3h-1a.5.5 0 0 1 0-1h1a2.5 2.5 0 0 1 0 5h-2.793l.646.646a.5.5 0 0 1 0 .708l-1 1a.5.5 0 0 1-.708-.708l.647-.646H10.5a2.5 2.5 0 0 0 0 5h1a.5.5 0 0 1 0 1h-1a3.5 3.5 0 0 1 0-7h1a.5.5 0 0 1 0 1h-1a2.5 2.5 0 0 0 0 5h2.793l-.646.646a.5.5 0 0 1-.708 0z"/>
</svg>
