<svg xmlns="http://www.w3.org/2000/svg" width="32" height="32" fill="currentColor" class="bi bi-gear" viewBox="0 0 16 16">
    <path d="M8 4.5a3.5 3.5 0 1 1 0 7 3.5 3.5 0 0 1 0-7zM0 8a8 8 0 1 1 8 8A8 8 0 0 1 0 8zm8-6A6 6 0 0 0 2 8a5.98 5.98 0 0 0 1.333 3.707l.96-.96A4.992 4.992 0 0 1 4 8a4.992 4.992 0 0 1 1.333-2.707l-.96-.96A5.98 5.98 0 0 0 8 2zM3.697 9.697l-.696.696a5.978 5.978 0 0 0-.36 1.015c.044.225.105.445.186.658l.39-.39a5.978 5.978 0 0 0 1.015-.36l-.696-.696zm1.486-1.486l.696-.696A5.978 5.978 0 0 0 8 6.697a5.978 5.978 0 0 0 1.015-.36l-.696-.696a5.978 5.978 0 0 0-.36 1.015 5.978 5.978 0 0 0-1.015-.36zM8 10a2 2 0 1 0 0-4 2 2 0 0 0 0 4z"/>
</svg>
